<mxfile host="app.diagrams.net" modified="2021-04-08T09:32:22.939Z" agent="5.0 (Windows NT 10.0; Win64; x64) AppleWebKit/537.36 (KHTML, like Gecko) Chrome/89.0.4389.114 Safari/537.36 Edg/89.0.774.68" etag="1cNvkXaO6bi5qglKTIQF" version="14.5.7" type="github">
  <diagram name="Page-1" id="929967ad-93f9-6ef4-fab6-5d389245f69c">
    <mxGraphModel dx="1422" dy="794" grid="1" gridSize="11" guides="1" tooltips="1" connect="1" arrows="1" fold="1" page="1" pageScale="1.5" pageWidth="1169" pageHeight="826" background="none" math="0" shadow="0">
      <root>
        <mxCell id="0" style=";html=1;" />
        <mxCell id="1" style=";html=1;" parent="0" />
        <mxCell id="y4D0pppzDmOQvxnknQmt-353" value="" style="rounded=0;whiteSpace=wrap;html=1;strokeWidth=1;fontSize=15;align=center;glass=0;sketch=0;shadow=1;" vertex="1" parent="1">
          <mxGeometry x="99" y="22" width="1298" height="682" as="geometry" />
        </mxCell>
        <mxCell id="y4D0pppzDmOQvxnknQmt-352" value="&lt;span style=&quot;font-weight: normal&quot;&gt;&amp;nbsp; &lt;/span&gt;ESign Transformation" style="rounded=0;whiteSpace=wrap;html=1;dashed=1;strokeWidth=1;fontSize=15;align=left;verticalAlign=bottom;fontStyle=5;spacingTop=0;" vertex="1" parent="1">
          <mxGeometry x="242" y="352" width="946" height="275" as="geometry" />
        </mxCell>
        <mxCell id="y4D0pppzDmOQvxnknQmt-345" value="" style="rounded=0;whiteSpace=wrap;html=1;strokeWidth=1;fontSize=12;align=center;dashed=1;" vertex="1" parent="1">
          <mxGeometry x="242" y="66" width="946" height="264" as="geometry" />
        </mxCell>
        <mxCell id="y4D0pppzDmOQvxnknQmt-286" value="&lt;b&gt;&amp;nbsp; Legacy&amp;nbsp;Esignature Platform&lt;/b&gt;" style="rounded=0;whiteSpace=wrap;html=1;fontSize=12;align=left;verticalAlign=top;" vertex="1" parent="1">
          <mxGeometry x="519.75" y="105.5" width="242" height="209" as="geometry" />
        </mxCell>
        <mxCell id="y4D0pppzDmOQvxnknQmt-276" style="edgeStyle=orthogonalEdgeStyle;rounded=0;orthogonalLoop=1;jettySize=auto;html=1;fontSize=12;" edge="1" parent="1" source="y4D0pppzDmOQvxnknQmt-271" target="y4D0pppzDmOQvxnknQmt-274">
          <mxGeometry relative="1" as="geometry" />
        </mxCell>
        <mxCell id="y4D0pppzDmOQvxnknQmt-348" style="edgeStyle=orthogonalEdgeStyle;rounded=0;orthogonalLoop=1;jettySize=auto;html=1;fontSize=12;" edge="1" parent="1" source="y4D0pppzDmOQvxnknQmt-271" target="y4D0pppzDmOQvxnknQmt-286">
          <mxGeometry relative="1" as="geometry">
            <Array as="points">
              <mxPoint x="180" y="210" />
            </Array>
          </mxGeometry>
        </mxCell>
        <mxCell id="y4D0pppzDmOQvxnknQmt-349" value="Legacy Flow" style="edgeLabel;html=1;align=center;verticalAlign=middle;resizable=0;points=[];fontSize=12;" vertex="1" connectable="0" parent="y4D0pppzDmOQvxnknQmt-348">
          <mxGeometry x="-0.1935" relative="1" as="geometry">
            <mxPoint as="offset" />
          </mxGeometry>
        </mxCell>
        <mxCell id="y4D0pppzDmOQvxnknQmt-271" value="API Consumer" style="shape=umlActor;verticalLabelPosition=bottom;verticalAlign=top;html=1;outlineConnect=0;" vertex="1" parent="1">
          <mxGeometry x="165" y="385" width="30" height="60" as="geometry" />
        </mxCell>
        <mxCell id="y4D0pppzDmOQvxnknQmt-273" value="POST Call /esignature-rs-v1&lt;br&gt;/esign/requestSignatureByDRI" style="text;html=1;strokeColor=none;fillColor=none;align=center;verticalAlign=middle;whiteSpace=wrap;rounded=0;fontSize=10;" vertex="1" parent="1">
          <mxGeometry x="70" y="473" width="220" height="20" as="geometry" />
        </mxCell>
        <mxCell id="y4D0pppzDmOQvxnknQmt-280" style="edgeStyle=orthogonalEdgeStyle;rounded=0;orthogonalLoop=1;jettySize=auto;html=1;fontSize=12;" edge="1" parent="1" source="y4D0pppzDmOQvxnknQmt-274" target="y4D0pppzDmOQvxnknQmt-279">
          <mxGeometry relative="1" as="geometry">
            <mxPoint x="429" y="572" as="targetPoint" />
            <Array as="points">
              <mxPoint x="451" y="413" />
              <mxPoint x="451" y="413" />
            </Array>
          </mxGeometry>
        </mxCell>
        <mxCell id="y4D0pppzDmOQvxnknQmt-283" value="New" style="edgeLabel;html=1;align=center;verticalAlign=middle;resizable=0;points=[];fontSize=12;" vertex="1" connectable="0" parent="y4D0pppzDmOQvxnknQmt-280">
          <mxGeometry x="-0.2437" y="-2" relative="1" as="geometry">
            <mxPoint x="41" y="-15.5" as="offset" />
          </mxGeometry>
        </mxCell>
        <mxCell id="y4D0pppzDmOQvxnknQmt-305" style="edgeStyle=orthogonalEdgeStyle;rounded=0;orthogonalLoop=1;jettySize=auto;html=1;fontSize=12;" edge="1" parent="1" source="y4D0pppzDmOQvxnknQmt-274" target="y4D0pppzDmOQvxnknQmt-286">
          <mxGeometry relative="1" as="geometry">
            <Array as="points">
              <mxPoint x="319" y="286" />
            </Array>
          </mxGeometry>
        </mxCell>
        <mxCell id="y4D0pppzDmOQvxnknQmt-306" value="Legacy" style="edgeLabel;html=1;align=center;verticalAlign=middle;resizable=0;points=[];fontSize=12;" vertex="1" connectable="0" parent="y4D0pppzDmOQvxnknQmt-305">
          <mxGeometry x="0.3333" y="1" relative="1" as="geometry">
            <mxPoint as="offset" />
          </mxGeometry>
        </mxCell>
        <mxCell id="y4D0pppzDmOQvxnknQmt-274" value="&lt;font style=&quot;font-size: 12px&quot;&gt;esign-outbound-router&lt;/font&gt;" style="rounded=1;whiteSpace=wrap;html=1;fontSize=12;fillColor=#dae8fc;strokeColor=#6c8ebf;" vertex="1" parent="1">
          <mxGeometry x="275" y="385" width="120" height="60" as="geometry" />
        </mxCell>
        <mxCell id="y4D0pppzDmOQvxnknQmt-336" style="edgeStyle=orthogonalEdgeStyle;rounded=0;orthogonalLoop=1;jettySize=auto;html=1;fontSize=12;" edge="1" parent="1" source="y4D0pppzDmOQvxnknQmt-279" target="y4D0pppzDmOQvxnknQmt-334">
          <mxGeometry relative="1" as="geometry" />
        </mxCell>
        <mxCell id="y4D0pppzDmOQvxnknQmt-337" style="edgeStyle=orthogonalEdgeStyle;rounded=0;orthogonalLoop=1;jettySize=auto;html=1;fontSize=12;" edge="1" parent="1" source="y4D0pppzDmOQvxnknQmt-279" target="y4D0pppzDmOQvxnknQmt-335">
          <mxGeometry relative="1" as="geometry" />
        </mxCell>
        <mxCell id="y4D0pppzDmOQvxnknQmt-350" style="edgeStyle=orthogonalEdgeStyle;rounded=0;orthogonalLoop=1;jettySize=auto;html=1;fontSize=12;" edge="1" parent="1" source="y4D0pppzDmOQvxnknQmt-279" target="y4D0pppzDmOQvxnknQmt-314">
          <mxGeometry relative="1" as="geometry" />
        </mxCell>
        <mxCell id="y4D0pppzDmOQvxnknQmt-355" style="edgeStyle=orthogonalEdgeStyle;rounded=0;orthogonalLoop=1;jettySize=auto;html=1;fontSize=15;" edge="1" parent="1" source="y4D0pppzDmOQvxnknQmt-279" target="y4D0pppzDmOQvxnknQmt-354">
          <mxGeometry relative="1" as="geometry" />
        </mxCell>
        <mxCell id="y4D0pppzDmOQvxnknQmt-279" value="esignature-activiti-bpm" style="rounded=0;whiteSpace=wrap;html=1;fontSize=12;fillColor=#dae8fc;strokeColor=#6c8ebf;" vertex="1" parent="1">
          <mxGeometry x="492.25" y="385" width="187" height="55" as="geometry" />
        </mxCell>
        <mxCell id="y4D0pppzDmOQvxnknQmt-281" style="edgeStyle=orthogonalEdgeStyle;rounded=0;orthogonalLoop=1;jettySize=auto;html=1;exitX=0.5;exitY=1;exitDx=0;exitDy=0;fontSize=12;" edge="1" parent="1" source="y4D0pppzDmOQvxnknQmt-279" target="y4D0pppzDmOQvxnknQmt-279">
          <mxGeometry relative="1" as="geometry" />
        </mxCell>
        <mxCell id="y4D0pppzDmOQvxnknQmt-291" style="edgeStyle=orthogonalEdgeStyle;rounded=0;orthogonalLoop=1;jettySize=auto;html=1;fontSize=12;" edge="1" parent="1" source="y4D0pppzDmOQvxnknQmt-284" target="y4D0pppzDmOQvxnknQmt-287">
          <mxGeometry relative="1" as="geometry" />
        </mxCell>
        <mxCell id="y4D0pppzDmOQvxnknQmt-294" style="edgeStyle=orthogonalEdgeStyle;rounded=0;orthogonalLoop=1;jettySize=auto;html=1;fontSize=12;" edge="1" parent="1" source="y4D0pppzDmOQvxnknQmt-284" target="y4D0pppzDmOQvxnknQmt-288">
          <mxGeometry relative="1" as="geometry" />
        </mxCell>
        <mxCell id="y4D0pppzDmOQvxnknQmt-284" value="esignature-rs-v1" style="rounded=1;whiteSpace=wrap;html=1;fontSize=12;" vertex="1" parent="1">
          <mxGeometry x="563.75" y="154.25" width="165" height="38" as="geometry" />
        </mxCell>
        <mxCell id="y4D0pppzDmOQvxnknQmt-287" value="CTH" style="shape=cylinder3;whiteSpace=wrap;html=1;boundedLbl=1;backgroundOutline=1;size=15;fontSize=12;align=center;" vertex="1" parent="1">
          <mxGeometry x="563.75" y="237.5" width="44" height="66" as="geometry" />
        </mxCell>
        <mxCell id="y4D0pppzDmOQvxnknQmt-288" value="Mobius" style="shape=cylinder3;whiteSpace=wrap;html=1;boundedLbl=1;backgroundOutline=1;size=15;fontSize=12;align=center;" vertex="1" parent="1">
          <mxGeometry x="684.75" y="237.5" width="44" height="66" as="geometry" />
        </mxCell>
        <mxCell id="y4D0pppzDmOQvxnknQmt-297" value="Signer&amp;nbsp;&amp;nbsp;" style="shape=umlActor;verticalLabelPosition=bottom;verticalAlign=top;html=1;outlineConnect=0;fontSize=12;align=center;" vertex="1" parent="1">
          <mxGeometry x="1342" y="322" width="30" height="60" as="geometry" />
        </mxCell>
        <mxCell id="y4D0pppzDmOQvxnknQmt-304" style="edgeStyle=orthogonalEdgeStyle;rounded=0;orthogonalLoop=1;jettySize=auto;html=1;fontSize=12;" edge="1" parent="1" source="y4D0pppzDmOQvxnknQmt-307" target="y4D0pppzDmOQvxnknQmt-297">
          <mxGeometry relative="1" as="geometry">
            <mxPoint x="1122" y="170.5" as="sourcePoint" />
            <mxPoint x="1276" y="171" as="targetPoint" />
          </mxGeometry>
        </mxCell>
        <mxCell id="y4D0pppzDmOQvxnknQmt-307" value="Customize Email&lt;br&gt;&amp;nbsp;to Signer" style="outlineConnect=0;dashed=0;verticalLabelPosition=bottom;verticalAlign=top;align=center;html=1;shape=mxgraph.aws3.email;fillColor=#D9A741;gradientColor=none;fontSize=12;" vertex="1" parent="1">
          <mxGeometry x="1221" y="330" width="55" height="44" as="geometry" />
        </mxCell>
        <mxCell id="y4D0pppzDmOQvxnknQmt-322" style="edgeStyle=orthogonalEdgeStyle;rounded=0;orthogonalLoop=1;jettySize=auto;html=1;fontSize=12;" edge="1" parent="1" source="y4D0pppzDmOQvxnknQmt-314" target="y4D0pppzDmOQvxnknQmt-316">
          <mxGeometry relative="1" as="geometry">
            <Array as="points">
              <mxPoint x="792" y="440" />
              <mxPoint x="792" y="440" />
            </Array>
          </mxGeometry>
        </mxCell>
        <mxCell id="y4D0pppzDmOQvxnknQmt-314" value="adobe-outbound-rs-v1" style="rounded=1;whiteSpace=wrap;html=1;fontSize=12;align=center;fillColor=#dae8fc;strokeColor=#6c8ebf;" vertex="1" parent="1">
          <mxGeometry x="728.75" y="393" width="165" height="39" as="geometry" />
        </mxCell>
        <mxCell id="y4D0pppzDmOQvxnknQmt-316" value="adobe-rs-v1-api" style="rounded=1;whiteSpace=wrap;html=1;fontSize=12;align=center;fillColor=#dae8fc;strokeColor=#6c8ebf;" vertex="1" parent="1">
          <mxGeometry x="734" y="493" width="143" height="32" as="geometry" />
        </mxCell>
        <mxCell id="y4D0pppzDmOQvxnknQmt-317" value="Mule API" style="text;html=1;strokeColor=none;fillColor=none;align=center;verticalAlign=middle;whiteSpace=wrap;rounded=0;fontSize=12;" vertex="1" parent="1">
          <mxGeometry x="739.75" y="528" width="102" height="20" as="geometry" />
        </mxCell>
        <mxCell id="y4D0pppzDmOQvxnknQmt-334" value="CTH" style="shape=cylinder3;whiteSpace=wrap;html=1;boundedLbl=1;backgroundOutline=1;size=15;fontSize=12;align=center;" vertex="1" parent="1">
          <mxGeometry x="563.75" y="493" width="44" height="66" as="geometry" />
        </mxCell>
        <mxCell id="y4D0pppzDmOQvxnknQmt-335" value="Mobius" style="shape=cylinder3;whiteSpace=wrap;html=1;boundedLbl=1;backgroundOutline=1;size=15;fontSize=12;align=center;" vertex="1" parent="1">
          <mxGeometry x="624.25" y="493" width="44" height="66" as="geometry" />
        </mxCell>
        <mxCell id="y4D0pppzDmOQvxnknQmt-330" value="&lt;b&gt;Esign Vendors&lt;/b&gt;" style="rounded=0;whiteSpace=wrap;html=1;fontSize=12;align=left;verticalAlign=top;dashed=1;" vertex="1" parent="1">
          <mxGeometry x="924" y="110" width="218.5" height="473" as="geometry" />
        </mxCell>
        <mxCell id="y4D0pppzDmOQvxnknQmt-296" style="edgeStyle=orthogonalEdgeStyle;rounded=0;orthogonalLoop=1;jettySize=auto;html=1;fontSize=12;" edge="1" parent="1" source="y4D0pppzDmOQvxnknQmt-286" target="y4D0pppzDmOQvxnknQmt-295">
          <mxGeometry relative="1" as="geometry">
            <Array as="points">
              <mxPoint x="902" y="210" />
              <mxPoint x="902" y="259" />
            </Array>
          </mxGeometry>
        </mxCell>
        <mxCell id="y4D0pppzDmOQvxnknQmt-295" value="DocuSign&lt;br&gt;Vendor" style="ellipse;shape=cloud;whiteSpace=wrap;html=1;fontSize=12;align=center;fillColor=#d5e8d4;strokeColor=#82b366;" vertex="1" parent="1">
          <mxGeometry x="954.75" y="203" width="157" height="111.5" as="geometry" />
        </mxCell>
        <mxCell id="y4D0pppzDmOQvxnknQmt-326" value="Adobe Vendor" style="ellipse;shape=cloud;whiteSpace=wrap;html=1;fontSize=12;align=center;fillColor=#f8cecc;strokeColor=#b85450;" vertex="1" parent="1">
          <mxGeometry x="957" y="413.5" width="157" height="111.5" as="geometry" />
        </mxCell>
        <mxCell id="y4D0pppzDmOQvxnknQmt-341" style="edgeStyle=orthogonalEdgeStyle;rounded=0;orthogonalLoop=1;jettySize=auto;html=1;fontSize=12;" edge="1" parent="1" source="y4D0pppzDmOQvxnknQmt-326">
          <mxGeometry relative="1" as="geometry">
            <mxPoint x="1254" y="407" as="targetPoint" />
          </mxGeometry>
        </mxCell>
        <mxCell id="y4D0pppzDmOQvxnknQmt-300" style="edgeStyle=orthogonalEdgeStyle;rounded=0;orthogonalLoop=1;jettySize=auto;html=1;fontSize=12;" edge="1" parent="1" source="y4D0pppzDmOQvxnknQmt-295" target="y4D0pppzDmOQvxnknQmt-307">
          <mxGeometry relative="1" as="geometry">
            <mxPoint x="1067" y="170.5" as="targetPoint" />
            <Array as="points">
              <mxPoint x="1254" y="259" />
            </Array>
          </mxGeometry>
        </mxCell>
        <mxCell id="y4D0pppzDmOQvxnknQmt-331" style="edgeStyle=orthogonalEdgeStyle;rounded=0;orthogonalLoop=1;jettySize=auto;html=1;fontSize=12;" edge="1" parent="1" source="y4D0pppzDmOQvxnknQmt-316" target="y4D0pppzDmOQvxnknQmt-326">
          <mxGeometry relative="1" as="geometry">
            <Array as="points">
              <mxPoint x="902" y="509" />
              <mxPoint x="902" y="469" />
            </Array>
          </mxGeometry>
        </mxCell>
        <mxCell id="y4D0pppzDmOQvxnknQmt-354" value="Activiti&lt;br&gt;DB" style="shape=cylinder3;whiteSpace=wrap;html=1;boundedLbl=1;backgroundOutline=1;size=15;fontSize=12;align=center;" vertex="1" parent="1">
          <mxGeometry x="506" y="493" width="44" height="66" as="geometry" />
        </mxCell>
        <mxCell id="y4D0pppzDmOQvxnknQmt-356" value="&lt;span style=&quot;color: rgb(0 , 0 , 0) ; font-family: &amp;#34;helvetica&amp;#34; ; font-size: 15px ; font-style: normal ; letter-spacing: normal ; text-align: left ; text-indent: 0px ; text-transform: none ; word-spacing: 0px ; background-color: rgb(248 , 249 , 250) ; font-weight: normal&quot;&gt;&amp;nbsp;&lt;span&gt;&amp;nbsp;&lt;/span&gt;&lt;/span&gt;&lt;span style=&quot;color: rgb(0 , 0 , 0) ; font-family: &amp;#34;helvetica&amp;#34; ; font-size: 15px ; font-style: normal ; font-weight: 700 ; letter-spacing: normal ; text-align: left ; text-indent: 0px ; text-transform: none ; word-spacing: 0px ; background-color: rgb(248 , 249 , 250) ; text-decoration: underline ; display: inline ; float: none&quot;&gt;ESign Transformation Outbound&lt;/span&gt;" style="text;whiteSpace=wrap;html=1;" vertex="1" parent="1">
          <mxGeometry x="110" y="674" width="264" height="30" as="geometry" />
        </mxCell>
      </root>
    </mxGraphModel>
  </diagram>
</mxfile>
